<mxfile host="65bd71144e">
    <diagram id="H9QeyLhil0NVqrYUatWm" name="Página-1">
        <mxGraphModel dx="1563" dy="537" grid="1" gridSize="10" guides="1" tooltips="1" connect="1" arrows="1" fold="1" page="1" pageScale="1" pageWidth="827" pageHeight="1169" math="0" shadow="0">
            <root>
                <mxCell id="0"/>
                <mxCell id="1" parent="0"/>
                <mxCell id="2" value="" style="html=1;points=[];perimeter=orthogonalPerimeter;" parent="1" vertex="1">
                    <mxGeometry x="250" y="140" width="20" height="280" as="geometry"/>
                </mxCell>
                <mxCell id="3" value="Receber o Caminho para o Arquivo de Vídeo" style="html=1;verticalAlign=bottom;startArrow=oval;endArrow=block;startSize=8;" parent="1" target="2" edge="1">
                    <mxGeometry x="-0.2" y="20" relative="1" as="geometry">
                        <mxPoint x="200" y="140" as="sourcePoint"/>
                        <mxPoint as="offset"/>
                    </mxGeometry>
                </mxCell>
                <mxCell id="4" value="&lt;span style=&quot;color: rgba(0, 0, 0, 0); font-family: monospace; font-size: 0px; text-align: start;&quot;&gt;%3CmxGraphModel%3E%3Croot%3E%3CmxCell%20id%3D%220%22%2F%3E%3CmxCell%20id%3D%221%22%20parent%3D%220%22%2F%3E%3CmxCell%20id%3D%222%22%20value%3D%22return%20Error%2C%20Caso%20n%C3%A3o%20seja%20um%20arquivo%20de%20v%C3%ADdeo%20valido%22%20style%3D%22html%3D1%3BverticalAlign%3Dbottom%3BendArrow%3Dopen%3Bdashed%3D1%3BendSize%3D8%3BexitX%3D0%3BexitY%3D0.95%3B%22%20edge%3D%221%22%20parent%3D%221%22%3E%3CmxGeometry%20x%3D%22-0.0651%22%20y%3D%22-20%22%20relative%3D%221%22%20as%3D%22geometry%22%3E%3CmxPoint%20x%3D%22270%22%20y%3D%22399.9999999999999%22%20as%3D%22targetPoint%22%2F%3E%3CmxPoint%20x%3D%22590%22%20y%3D%22396.49999999999955%22%20as%3D%22sourcePoint%22%2F%3E%3CArray%20as%3D%22points%22%3E%3CmxPoint%20x%3D%22430%22%20y%3D%22400%22%2F%3E%3C%2FArray%3E%3CmxPoint%20as%3D%22offset%22%2F%3E%3C%2FmxGeometry%3E%3C%2FmxCell%3E%3C%2Froot%3E%3C%2FmxGraphModel%3E&lt;/span&gt;" style="html=1;points=[];perimeter=orthogonalPerimeter;" vertex="1" parent="1">
                    <mxGeometry x="590" y="140" width="20" height="270" as="geometry"/>
                </mxCell>
                <mxCell id="5" value="Validar se é um arquivo de vídeo" style="html=1;verticalAlign=bottom;endArrow=block;entryX=0;entryY=0;" edge="1" target="4" parent="1">
                    <mxGeometry relative="1" as="geometry">
                        <mxPoint x="440" y="140" as="sourcePoint"/>
                    </mxGeometry>
                </mxCell>
                <mxCell id="6" value="return False, Caso não seja um arquivo de vídeo valido" style="html=1;verticalAlign=bottom;endArrow=open;dashed=1;endSize=8;exitX=-0.098;exitY=0.218;entryX=1.005;entryY=0.193;entryDx=0;entryDy=0;entryPerimeter=0;exitDx=0;exitDy=0;exitPerimeter=0;" edge="1" source="4" parent="1" target="2">
                    <mxGeometry x="-0.0651" y="-20" relative="1" as="geometry">
                        <mxPoint x="360" y="400" as="targetPoint"/>
                        <Array as="points">
                            <mxPoint x="440" y="200"/>
                        </Array>
                        <mxPoint as="offset"/>
                    </mxGeometry>
                </mxCell>
                <mxCell id="7" value="return True, Caso seja um arquivo de vídeo valido" style="html=1;verticalAlign=bottom;endArrow=open;dashed=1;endSize=8;" edge="1" parent="1" source="4">
                    <mxGeometry x="-0.0968" y="10" relative="1" as="geometry">
                        <mxPoint x="920" y="160" as="targetPoint"/>
                        <mxPoint x="827" y="439.99999999999955" as="sourcePoint"/>
                        <Array as="points">
                            <mxPoint x="690" y="160"/>
                        </Array>
                        <mxPoint as="offset"/>
                    </mxGeometry>
                </mxCell>
                <mxCell id="8" value="" style="html=1;points=[];perimeter=orthogonalPerimeter;" vertex="1" parent="1">
                    <mxGeometry x="1020" y="140" width="33.75" height="270" as="geometry"/>
                </mxCell>
                <mxCell id="9" value="Alimentar o Modelo com o vídeo" style="html=1;verticalAlign=bottom;endArrow=block;entryX=0;entryY=0;" edge="1" target="8" parent="1">
                    <mxGeometry relative="1" as="geometry">
                        <mxPoint x="950" y="140" as="sourcePoint"/>
                    </mxGeometry>
                </mxCell>
                <mxCell id="10" value="" style="html=1;verticalAlign=bottom;endArrow=open;dashed=1;endSize=8;" edge="1" source="8" parent="1">
                    <mxGeometry relative="1" as="geometry">
                        <mxPoint x="1280" y="160" as="targetPoint"/>
                    </mxGeometry>
                </mxCell>
                <mxCell id="11" value="Pegar os animais e detecções realizadas" style="edgeLabel;html=1;align=center;verticalAlign=middle;resizable=0;points=[];" vertex="1" connectable="0" parent="10">
                    <mxGeometry x="-0.1633" y="2" relative="1" as="geometry">
                        <mxPoint x="22" y="-18" as="offset"/>
                    </mxGeometry>
                </mxCell>
            </root>
        </mxGraphModel>
    </diagram>
</mxfile>